<svg xmlns="http://www.w3.org/2000/svg" version="1.1" xmlns:xlink="http://www.w3.org/1999/xlink" width="512"
    height="512" x="0" y="0" viewBox="0 0 68 68" style="enable-background:new 0 0 512 512" xml:space="preserve"
    class="">
    <g>
        <path fill="#8fc8f5" d="M34 2c17.67 0 32 14.33 32 32 0 17.68-14.33 32-32 32S2 51.68 2 34C2 16.33 16.33 2 34 2"
            opacity="1" data-original="#8fc8f5"></path>
        <path fill="#d0f6ff"
            d="M61.284 17.04C55.594 26.07 45.501 32.07 34 32.07s-21.594-6-27.284-15.03C12.396 8.01 22.499 2 34 2s21.604 6.01 27.284 15.04z"
            opacity="1" data-original="#d0f6ff"></path>
        <path fill="#ffffff"
            d="M59.41 35.078a8.176 8.176 0 0 1-2.402 5.798 8.176 8.176 0 0 1-5.8 2.402H17.706a9.115 9.115 0 0 1-9.116-9.114v-.396c0-4.431 3.163-8.124 7.354-8.944a6.653 6.653 0 0 1 8.986-5.214c2.497-4.739 7.472-7.968 13.2-7.968 8.236 0 14.913 6.676 14.913 14.913 0 .175-.003.35-.009.525a8.205 8.205 0 0 1 6.376 7.998z"
            opacity="1" data-original="#ffffff"></path>
        <path fill="#20273a" d="M17.348 32.926h31.726v12.67H17.348z" opacity="1" data-original="#20273a"></path>
        <path fill="#313b5a"
            d="M50.376 45.157v7.478a.995.995 0 0 1-.997.996H17.044a.995.995 0 0 1-.997-.996v-7.478a.996.996 0 0 1 .997-1.001h32.335c.551 0 .997.445.997 1.001zM50.376 33.928v7.477a.995.995 0 0 1-.997.996H17.044a.995.995 0 0 1-.997-.996v-7.477a.996.996 0 0 1 .997-1.002h32.335c.551 0 .997.445.997 1.002z"
            opacity="1" data-original="#313b5a"></path>
        <path fill="#ff3445"
            d="M46.222 37.664c0 .974-.795 1.768-1.77 1.768a1.772 1.772 0 0 1-1.768-1.768c0-.975.794-1.77 1.769-1.77.974 0 1.769.795 1.769 1.77z"
            opacity="1" data-original="#ff3445"></path>
        <path fill="#0f9be8" d="M39.75 37.664a.84.84 0 0 1-.84.839.84.84 0 1 1 .84-.84z" opacity="1"
            data-original="#0f9be8"></path>
        <path fill="#95d600" d="M36.749 37.664a.84.84 0 1 1-.84-.84.84.84 0 0 1 .84.84z" opacity="1"
            data-original="#95d600"></path>
        <path fill="#fed110" d="M33.748 37.664a.84.84 0 0 1-.84.839.84.84 0 1 1 .84-.84z" opacity="1"
            data-original="#fed110"></path>
        <path fill="#20273a"
            d="M28.423 37.214v.91c0 .063-.054.117-.126.117h-8.108a.12.12 0 0 1-.117-.117v-.91a.12.12 0 0 1 .117-.117h8.108c.072 0 .126.054.126.117z"
            opacity="1" data-original="#20273a"></path>
        <path fill="#ff3445"
            d="M46.222 48.897c0 .974-.795 1.768-1.77 1.768a1.772 1.772 0 0 1-1.768-1.768c0-.975.794-1.77 1.769-1.77.974 0 1.769.795 1.769 1.77z"
            opacity="1" data-original="#ff3445"></path>
        <path fill="#0f9be8"
            d="M39.75 48.897a.84.84 0 0 1-.84.84c-.463 0-.84-.378-.84-.84s.377-.84.84-.84a.84.84 0 0 1 .84.84z"
            opacity="1" data-original="#0f9be8"></path>
        <path fill="#95d600" d="M36.749 48.897a.84.84 0 1 1-.84-.84.84.84 0 0 1 .84.84z" opacity="1"
            data-original="#95d600"></path>
        <path fill="#fed110"
            d="M33.748 48.897a.84.84 0 0 1-.84.84c-.462 0-.839-.378-.839-.84s.377-.84.84-.84a.84.84 0 0 1 .84.84z"
            opacity="1" data-original="#fed110"></path>
        <path fill="#20273a"
            d="M28.423 48.447v.91c0 .063-.054.117-.126.117h-8.108a.12.12 0 0 1-.117-.117v-.91a.12.12 0 0 1 .117-.117h8.108c.072 0 .126.054.126.117z"
            opacity="1" data-original="#20273a"></path>
        <path
            d="M53.299 57.074c0 .65-8.642 1.176-19.299 1.176s-19.299-.527-19.299-1.176c0-.649 8.642-1.168 19.299-1.168s19.299.52 19.299 1.168z"
            opacity="1" fill="#00000015" data-original="#00000015"></path>
    </g>
</svg>