<svg width="182" height="228" xmlns="http://www.w3.org/2000/svg" xmlns:xlink="http://www.w3.org/1999/xlink" xml:space="preserve" overflow="hidden"><defs><clipPath id="clip0"><rect x="143" y="174" width="182" height="228"/></clipPath></defs><g clip-path="url(#clip0)" transform="translate(-143 -174)"><path d="M396.922 221.534 396.864 237.466C396.825 250.867 388.019 264.245 370.426 274.467 335.02 295.043 277.433 295.043 241.788 274.465 223.854 264.11 214.899 250.521 214.938 236.954L214.998 221.023C214.958 234.591 252.443 228.398 270.376 238.751 306.02 259.326 313.982 258.491 349.388 237.916 366.981 227.694 396.883 234.936 396.922 221.536Z" fill="#1C323D" fill-rule="evenodd" transform="matrix(1.00009 0 0 1 -71.956 112.102)"/><path d="M370.084 184.055C405.711 204.636 405.886 238.003 370.499 258.581 335.111 279.16 277.548 279.16 241.923 258.58 206.304 237.997 206.117 204.639 241.505 184.062 276.892 163.486 334.464 163.476 370.084 184.055Z" fill="#324566" fill-rule="evenodd" transform="matrix(1.00009 0 0 1 -71.956 112.102)"/><path d="M370.496 258.574C335.108 279.163 277.551 279.163 241.922 258.574 208.706 239.384 206.306 209.059 234.825 188.379 238.214 192.184 241.334 196.372 245.98 198.283 255.577 202.236 265.636 194.713 275.519 191.541 283.756 188.936 292.655 189.384 300.59 192.803 306.149 195.222 311.158 199.084 317.095 200.276 327.702 202.417 337.778 195.675 347.384 190.683 353.871 187.313 360.697 184.646 367.749 182.727 368.535 183.148 369.317 183.59 370.084 184.03 405.714 204.618 405.883 237.996 370.496 258.574Z" fill="#26404F" fill-rule="evenodd" transform="matrix(1.00009 0 0 1 -71.956 112.102)"/><path d="M390.688 195.08 390.631 215.791C390.597 228.282 382.388 240.754 366.004 250.282 333.027 269.457 279.383 269.46 246.182 250.279 229.478 240.629 221.136 227.963 221.172 215.313L221.228 194.602C221.193 207.25 256.108 201.474 272.812 211.124 306.013 230.305 313.429 229.526 346.409 210.348 362.793 200.82 390.652 207.571 390.688 195.08Z" fill="#F9C539" fill-rule="evenodd" transform="matrix(1.00009 0 0 1 -71.956 112.102)"/><path d="M396.922 221.534 396.864 237.466C396.825 250.867 388.019 264.245 370.426 274.467 335.02 295.043 277.433 295.043 241.788 274.465 223.854 264.11 214.899 250.521 214.938 236.954L214.998 221.023C214.958 234.591 252.443 228.398 270.376 238.751 306.02 259.326 313.982 258.491 349.388 237.916 366.981 227.694 396.883 234.936 396.922 221.536Z" fill="#1C323D" fill-rule="evenodd" transform="matrix(1.00009 0 0 1 -71.956 112.102)"/><path d="M314.391 253.395C301.919 255.204 290.605 250.43 270.376 238.753 252.443 228.395 214.958 234.592 214.998 221.023L214.938 236.955C214.899 250.524 223.854 264.118 241.788 274.47 261.706 285.969 288.47 291.035 314.391 289.685Z" fill="#162830" fill-rule="evenodd" transform="matrix(1.00009 0 0 1 -71.956 112.102)"/><path d="M370.084 184.055C405.711 204.636 405.886 238.003 370.499 258.581 335.111 279.16 277.548 279.16 241.923 258.58 206.304 237.997 206.117 204.639 241.505 184.062 276.892 163.486 334.464 163.476 370.084 184.055Z" fill="#324566" fill-rule="evenodd" transform="matrix(1.00009 0 0 1 -71.956 112.102)"/><path d="M370.496 258.574C335.108 279.163 277.551 279.163 241.922 258.574 208.706 239.384 206.306 209.059 234.825 188.379 238.214 192.184 241.334 196.372 245.98 198.283 255.577 202.236 265.636 194.713 275.519 191.541 283.756 188.936 292.655 189.384 300.59 192.803 306.149 195.222 311.158 199.084 317.095 200.276 327.702 202.417 337.778 195.675 347.384 190.683 353.871 187.313 360.697 184.646 367.749 182.727 368.535 183.148 369.317 183.59 370.084 184.03 405.714 204.618 405.883 237.996 370.496 258.574Z" fill="#26404F" fill-rule="evenodd" transform="matrix(1.00009 0 0 1 -71.956 112.102)"/><path d="M390.688 195.08 390.631 215.791C390.597 228.282 382.388 240.754 366.004 250.282 333.027 269.457 279.383 269.46 246.182 250.279 229.478 240.629 221.136 227.963 221.172 215.313L221.228 194.602C221.193 207.25 256.108 201.474 272.812 211.124 306.013 230.305 313.429 229.526 346.409 210.348 362.793 200.82 390.652 207.571 390.688 195.08Z" fill="#F9C539" fill-rule="evenodd" transform="matrix(1.00009 0 0 1 -71.956 112.102)"/><path d="M396.922 186.209 396.864 202.105C396.825 215.475 388.019 228.825 370.426 239.024 335.02 259.555 277.433 259.555 241.788 239.021 223.854 228.69 214.899 215.13 214.938 201.593L214.998 185.695C214.958 199.236 252.443 193.055 270.376 203.383 306.02 223.916 313.982 223.084 349.388 202.553 366.981 192.354 396.883 199.58 396.922 186.209Z" fill="#1C323D" fill-rule="evenodd" transform="matrix(1.00009 0 0 1 -71.956 112.102)"/><path d="M370.084 148.705C405.711 169.257 405.886 202.577 370.499 223.127 335.111 243.676 277.548 243.676 241.923 223.124 206.304 202.574 206.117 169.26 241.505 148.712 276.892 128.165 334.464 128.155 370.084 148.705Z" fill="#324566" fill-rule="evenodd" transform="matrix(1.00009 0 0 1 -71.956 112.102)"/><path d="M370.496 223.122C335.108 243.678 277.551 243.678 241.922 223.122 208.706 203.964 206.306 173.688 234.825 153.042 238.214 156.838 241.334 161.022 245.98 162.929 255.577 166.876 265.636 159.364 275.519 156.198 283.756 153.599 292.655 154.045 300.59 157.458 306.149 159.875 311.158 163.73 317.095 164.92 327.702 167.056 337.778 160.323 347.384 155.338 353.871 151.976 360.697 149.315 367.749 147.398 368.535 147.819 369.317 148.258 370.084 148.696 405.714 169.254 405.883 202.574 370.496 223.122Z" fill="#26404F" fill-rule="evenodd" transform="matrix(1.00009 0 0 1 -71.956 112.102)"/><path d="M390.688 159.751 390.631 180.463C390.597 192.954 382.388 205.426 366.004 214.954 333.027 234.13 279.383 234.13 246.182 214.951 229.478 205.301 221.136 192.635 221.172 179.986L221.228 159.273C221.193 171.92 256.108 166.146 272.812 175.796 306.013 194.979 313.429 194.198 346.409 175.02 362.793 165.491 390.652 172.242 390.688 159.751Z" fill="#F9C539" fill-rule="evenodd" transform="matrix(1.00009 0 0 1 -71.956 112.102)"/><path d="M396.922 186.209 396.864 202.105C396.825 215.475 388.019 228.825 370.426 239.024 335.02 259.555 277.433 259.555 241.788 239.021 223.854 228.69 214.899 215.13 214.938 201.593L214.998 185.695C214.958 199.236 252.443 193.055 270.376 203.383 306.02 223.916 313.982 223.084 349.388 202.553 366.981 192.354 396.883 199.58 396.922 186.209Z" fill="#1C323D" fill-rule="evenodd" transform="matrix(1.00009 0 0 1 -71.956 112.102)"/><path d="M314.391 217.998C301.919 219.802 290.605 215.04 270.376 203.386 252.443 193.056 214.958 199.236 214.998 185.695L214.938 201.594C214.899 215.133 223.854 228.698 241.788 239.027 261.706 250.502 288.47 255.557 314.391 254.21L314.391 217.998Z" fill="#162830" fill-rule="evenodd" transform="matrix(1.00009 0 0 1 -71.956 112.102)"/><path d="M370.084 148.705C405.711 169.257 405.886 202.577 370.499 223.127 335.111 243.676 277.548 243.676 241.923 223.124 206.304 202.574 206.117 169.26 241.505 148.712 276.892 128.165 334.464 128.155 370.084 148.705Z" fill="#324566" fill-rule="evenodd" transform="matrix(1.00009 0 0 1 -71.956 112.102)"/><path d="M370.496 223.122C335.108 243.678 277.551 243.678 241.922 223.122 208.706 203.964 206.306 173.688 234.825 153.042 238.214 156.838 241.334 161.022 245.98 162.929 255.577 166.876 265.636 159.364 275.519 156.198 283.756 153.599 292.655 154.045 300.59 157.458 306.149 159.875 311.158 163.73 317.095 164.92 327.702 167.056 337.778 160.323 347.384 155.338 353.871 151.976 360.697 149.315 367.749 147.398 368.535 147.819 369.317 148.258 370.084 148.696 405.714 169.254 405.883 202.574 370.496 223.122Z" fill="#26404F" fill-rule="evenodd" transform="matrix(1.00009 0 0 1 -71.956 112.102)"/><path d="M390.688 159.751 390.631 180.463C390.597 192.954 382.388 205.426 366.004 214.954 333.027 234.13 279.383 234.13 246.182 214.951 229.478 205.301 221.136 192.635 221.172 179.986L221.228 159.273C221.193 171.92 256.108 166.146 272.812 175.796 306.013 194.979 313.429 194.198 346.409 175.02 362.793 165.491 390.652 172.242 390.688 159.751Z" fill="#F9C539" fill-rule="evenodd" transform="matrix(1.00009 0 0 1 -71.956 112.102)"/><path d="M396.922 150.731 396.864 166.664C396.825 180.064 388.019 193.442 370.426 203.664 335.02 224.237 277.433 224.237 241.788 203.661 223.854 193.304 214.899 179.718 214.938 166.149L214.998 150.219C214.958 163.787 252.443 157.592 270.376 167.945 306.02 188.523 313.982 187.684 349.388 167.112 366.981 156.891 396.883 164.13 396.922 150.731Z" fill="#1C323D" fill-rule="evenodd" transform="matrix(1.00009 0 0 1 -71.956 112.102)"/><path d="M311.57 182.893C300.172 183.61 289.094 178.714 270.426 167.948 252.477 157.593 214.958 163.79 214.998 150.219L214.938 166.151C214.899 179.722 223.863 193.315 241.814 203.67 261.004 214.737 286.547 219.843 311.57 219.005Z" fill="#162830" fill-rule="evenodd" transform="matrix(1.00009 0 0 1 -71.956 112.102)"/><path d="M370.084 113.253C405.711 133.831 405.886 167.2 370.499 187.778 335.111 208.357 277.548 208.354 241.923 187.776 206.304 167.197 206.117 133.836 241.505 113.258 276.892 92.6795 334.464 92.6719 370.084 113.25Z" fill="#324566" fill-rule="evenodd" transform="matrix(1.00009 0 0 1 -71.956 112.102)"/><path d="M370.496 187.794C335.108 208.35 277.551 208.35 241.922 187.794 208.706 168.635 206.306 138.358 234.825 117.714 238.214 121.509 241.334 125.694 245.98 127.601 255.577 131.548 265.636 124.036 275.519 120.87 283.756 118.27 292.655 118.717 300.59 122.13 306.149 124.546 311.158 128.402 317.095 129.591 327.702 131.728 337.778 124.995 347.384 120.011 353.871 116.648 360.697 113.986 367.749 112.07 368.535 112.489 369.317 112.93 370.084 113.368 405.714 133.926 405.883 167.246 370.496 187.794Z" fill="#26404F" fill-rule="evenodd" transform="matrix(1.00009 0 0 1 -71.956 112.102)"/><path d="M390.688 124.422 390.631 145.09C390.597 157.555 382.388 170 366.004 179.508 333.027 198.644 279.383 198.644 246.182 179.503 229.478 169.876 221.136 157.234 221.172 144.614L221.228 123.945C221.193 136.565 256.108 130.804 272.812 140.434 306.013 159.575 313.429 158.794 346.409 139.658 362.793 130.15 390.652 136.884 390.688 124.422Z" fill="#F9C539" fill-rule="evenodd" transform="matrix(1.00009 0 0 1 -71.956 112.102)"/><path d="M396.922 114.812 396.864 130.744C396.825 144.142 388.019 157.52 370.426 167.742 335.02 188.315 277.433 188.315 241.788 167.739 223.854 157.387 214.899 143.797 214.938 130.229L214.998 114.297C214.958 127.866 252.443 121.67 270.376 132.023 306.02 152.6 313.982 151.764 349.388 131.191 366.981 120.97 396.883 128.211 396.922 114.81Z" fill="#1C323D" fill-rule="evenodd" transform="matrix(1.00009 0 0 1 -71.956 112.102)"/><path d="M311.125 146.988C299.862 147.579 288.828 142.677 270.377 132.026 252.445 121.671 214.958 127.868 214.998 114.297L214.938 130.231C214.899 143.799 223.854 157.39 241.79 167.745 260.87 178.762 286.235 183.872 311.122 183.095L311.122 146.988Z" fill="#162830" fill-rule="evenodd" transform="matrix(1.00009 0 0 1 -71.956 112.102)"/><path d="M370.084 77.3309C405.711 97.9092 405.886 131.277 370.499 151.856 335.111 172.434 277.548 172.434 241.923 151.853 206.304 131.275 206.117 97.9143 241.505 77.3361 276.892 56.7576 334.464 56.75 370.084 77.3284Z" fill="#324566" fill-rule="evenodd" transform="matrix(1.00009 0 0 1 -71.956 112.102)"/><path d="M370.496 151.847C335.108 172.437 277.551 172.437 241.922 151.847 208.706 132.658 206.306 102.333 234.825 81.6525 238.214 85.454 241.334 89.6463 245.98 91.5559 255.577 95.5097 265.636 87.9857 275.519 84.8139 283.756 82.2097 292.655 82.6576 300.59 86.0761 306.149 88.4961 311.158 92.3584 317.095 93.5493 327.702 95.6899 337.778 88.9455 347.384 83.9531 353.871 80.5849 360.697 77.9187 367.749 76 368.535 76.4216 369.317 76.8608 370.084 77.3002 405.714 97.8916 405.883 131.266 370.496 151.847Z" fill="#26404F" fill-rule="evenodd" transform="matrix(1.00009 0 0 1 -71.956 112.102)"/><path d="M319.512 98.7194C332.221 106.052 332.285 117.941 319.659 125.274 307.034 132.607 286.501 132.607 273.791 125.274 261.085 117.941 261.02 106.055 273.643 98.7194 286.266 91.3839 306.805 91.3864 319.512 98.7194Z" fill="#162830" fill-rule="evenodd" transform="matrix(1.00009 0 0 1 -71.956 112.102)"/><path d="M328.863 101.263C341.573 108.625 341.636 120.564 329.01 127.924 316.387 135.286 295.852 135.286 283.143 127.924 270.437 120.561 270.371 108.627 282.995 101.265 295.618 93.9029 316.157 93.9002 328.863 101.263Z" fill="#FBD46C" fill-rule="evenodd" transform="matrix(1.00009 0 0 1 -71.956 112.102)"/><path d="M329.018 127.943C316.392 135.279 295.854 135.279 283.146 127.943 271.701 121.335 270.513 111.041 279.594 103.695 283.36 104.796 286.385 107.672 290.022 109.202 293.814 110.774 298.068 110.81 301.888 109.304 305.026 108.043 307.95 105.734 311.328 105.904 313.153 105.993 314.851 106.815 316.629 107.264 320.477 108.233 325.16 107.036 327.038 103.525 327.478 102.706 327.757 101.797 328.108 100.938 328.369 101.067 328.617 101.217 328.868 101.356 341.573 108.692 341.633 120.597 329.018 127.941Z" fill="#F9C539" fill-rule="evenodd" transform="matrix(1.00009 0 0 1 -71.956 112.102)"/><path d="M306.035 133.891C297.636 133.891 289.228 132.038 282.808 128.333 276.475 124.674 272.984 119.778 272.977 114.548 272.969 109.356 276.41 104.493 282.658 100.859 295.41 93.4436 316.218 93.4436 329.052 100.854 335.384 104.514 338.875 109.406 338.883 114.637 338.89 119.834 335.452 124.696 329.202 128.33 322.828 132.035 314.437 133.888 306.035 133.888ZM305.832 96.2962C297.611 96.2962 289.404 98.1107 283.168 101.737 277.243 105.181 273.986 109.731 273.99 114.548 273.998 119.397 277.312 123.983 283.312 127.452 295.872 134.703 316.224 134.703 328.691 127.452 334.617 124.009 337.876 119.458 337.869 114.639 337.862 109.787 334.55 105.204 328.544 101.735 322.273 98.1107 314.043 96.2962 305.83 96.2962Z" fill="#FFFFFF" fill-rule="evenodd" transform="matrix(1.00009 0 0 1 -71.956 112.102)"/></g></svg>