<svg xmlns="http://www.w3.org/2000/svg" version="1.1" xmlns:xlink="http://www.w3.org/1999/xlink" width="512" height="512" x="0" y="0" viewBox="0 0 56 58" style="enable-background:new 0 0 512 512" xml:space="preserve" class=""><g><g fill="none" fill-rule="nonzero"><path fill="#a56a43" d="M51 30.11v16.74a2 2 0 0 1-1.2 1.84l-21 9.14c-.253.11-.525.168-.8.17V28.5z" opacity="1" data-original="#a56a43"></path><path fill="#e57e25" d="M28 28.5V58a2.053 2.053 0 0 1-.8-.17l-21-9.14A2 2 0 0 1 5 46.85V30.11z" opacity="1" data-original="#e57e25"></path><path fill="#ffffff" d="M16 43.925v2.818a1 1 0 0 1-1.4.917l-5-2.178a1 1 0 0 1-.6-.917v-2.819a1 1 0 0 1 1.4-.916l5 2.178a1 1 0 0 1 .6.917z" opacity="1" data-original="#ffffff"></path><g fill="#fac176"><path d="m51 30.11 3.81-1.66a2 2 0 0 0 .86-2.94L51 18.5l4.67-7.01a2 2 0 0 0-.86-2.94L35.53.17a2 2 0 0 0-2.46.72L28 8.5 22.93.89a2 2 0 0 0-2.46-.72L1.19 8.55a2 2 0 0 0-.86 2.94L5 18.5.33 25.51a2 2 0 0 0 .86 2.94L5 30.11l22.991-2.25z" fill="#fac176" opacity="1" data-original="#fac176" class=""></path><path d="m28 28.5-5.07 7.61a2 2 0 0 1-2.46.72L5 30.11l-3.81-1.66a2 2 0 0 1-.86-2.94L5 18.5zM54.81 28.45 51 30.11l-15.47 6.72a2 2 0 0 1-2.46-.72L28 28.5l23-10 4.67 7.01a2 2 0 0 1-.86 2.94z" fill="#fac176" opacity="1" data-original="#fac176" class=""></path></g><path fill="#f29c1f" d="M28 8.5v20l-23-10z" opacity="1" data-original="#f29c1f"></path><path fill="#e57e25" d="m51 18.5-23 10v-20z" opacity="1" data-original="#e57e25"></path></g></g></svg>